# xmcd CD database file
#
# Track frame offsets:
#	150
#	24660
#	51760
#	75317
#	83455
#	109122
#	136935
#	161897
#	174365
#	199710
#	226495
#
# Disc length: 3180 seconds
#
# Revision: 0
# Processed by: cddbd v1.5.1PL0 Copyright (c) Steve Scherf et al.
# Submitted via: CDex 1.51
#
DISCID=7e0c6a0b
DTITLE=き乃はち - 粋 Iki
DYEAR=2004
DGENRE=New Age
TTITLE0=子の星
TTITLE1=侍 〜Something Bright〜
TTITLE2=Akita Magouta
TTITLE3=山車
TTITLE4=雪の音
TTITLE5=天涯
TTITLE6=祈りの朝
TTITLE7=水神
TTITLE8=長月
TTITLE9=Night Walker
TTITLE10=浮世音
EXTD=YEAR: 2004
EXTT0=
EXTT1=
EXTT2=
EXTT3=
EXTT4=
EXTT5=
EXTT6=
EXTT7=
EXTT8=
EXTT9=
EXTT10=
PLAYORDER=
